<svg width="155" height="96" viewBox="0 0 155 96" fill="none" xmlns="http://www.w3.org/2000/svg">
<g clip-path="url(#clip0_8_3470)">
<path d="M61.2758 43.3679L71.4402 16.4044C71.4402 16.4044 72.1295 13.8195 70.1478 12.9593C68.166 12.0977 65.4102 10.9775 65.4102 10.9775V9.85742H79.5381V11.5807L93.0628 43.3679H84.6203L75.6608 19.4201L66.6151 43.3679H61.2744H61.2758Z" fill="white"/>
<path d="M31.1092 84.6246V65.5395C31.1092 65.5395 31.3343 64.1928 28.1908 64.1928V63.3701H34.4779V64.1192L44.1322 80.3609V63.3715H45.9291V84.6274H43.4596L33.0562 66.365V84.6274H31.1106L31.1092 84.6246Z" fill="white"/>
<path d="M65.6882 84.6246V65.0156H61.9457C61.9457 65.0156 59.7749 65.1656 59.7749 67.7853H58.9522V63.3701H74.8937V67.7116H74.2947C74.2947 67.7116 74.0696 65.0294 72.4241 65.0294H68.3828V84.626H65.6882V84.6246Z" fill="white"/>
<path d="M95.0265 63.3687H89.6372V64.2664C91.9566 64.2664 91.8079 66.4372 91.8079 66.4372L84.9219 84.605L87.2232 84.587L89.7859 77.4577L97.3446 77.4396L99.8891 84.6245H102.584L95.0251 63.3687H95.0265ZM90.1236 76.2042L93.6785 67.1112L96.9707 76.2042H90.1236Z" fill="white"/>
<path d="M10.1217 63.3687H4.7324V64.2664C7.05184 64.2664 6.90314 66.4372 6.90314 66.4372L0.0170898 84.605L2.31846 84.587L4.88249 77.4577L12.4412 77.4396L14.9857 84.6245H17.6804L10.1217 63.3687ZM5.2188 76.2042L8.7737 67.1112L12.0659 76.2042H5.2188Z" fill="white"/>
<path d="M128.257 80.1344V84.6246H116.132V65.6145C116.132 65.6145 115.982 64.1928 113.437 64.1928V63.3701H127.732V67.2613H127.058C127.058 67.2613 126.684 64.6417 124.962 64.6417H119.798C119.798 64.6417 118.675 65.1656 118.675 66.3636V72.8008H124.213C124.213 72.8008 125.953 71.7529 125.953 70.48H126.908V76.8421H125.71C125.71 76.8421 125.86 73.9974 124.138 73.9974H118.749V83.4947H125.859C125.859 83.4947 127.282 82.679 127.282 80.1344H128.253H128.257Z" fill="white"/>
<path d="M152.582 66.101V63.3688C152.582 63.3688 147.074 62.7476 144.505 63.5453C141.935 64.343 137.89 69.0528 144.243 73.5638C147.914 76.1279 148.86 76.0904 150.341 77.3383C151.823 78.5877 151.738 82.8222 148.571 83.146C145.402 83.4698 142.06 82.5971 141.33 81.8688V84.6247C141.33 84.6247 145.986 85.232 150.139 84.6247C154.291 84.0174 155.975 77.1062 152.287 74.6965C148.599 72.2867 147.498 71.9935 145.639 70.7455C143.779 69.4989 142.833 66.5485 145.202 65.2005C147.572 63.8538 150.636 65.2033 152.583 66.101H152.582Z" fill="white"/>
</g>
<defs>
<clipPath id="clip0_8_3470">
<rect width="154.34" height="95.52" fill="white"/>
</clipPath>
</defs>
</svg>
