<?xml version="1.0" encoding="utf-8"?>
<!-- Generator: Adobe Illustrator 27.4.1, SVG Export Plug-In . SVG Version: 6.00 Build 0)  -->
<svg version="1.1" id="Calque_1" xmlns="http://www.w3.org/2000/svg" xmlns:xlink="http://www.w3.org/1999/xlink" x="0px" y="0px"
	 viewBox="0 0 80 80" style="enable-background:new 0 0 80 80;" xml:space="preserve">
<style type="text/css">
	.st0{display:none;}
	.st1{display:inline;fill:#FFFFFF;}
	.st2{fill:#DA252A;}
</style>
<g class="st0">
	<path class="st1" d="M26.4,19.8c8.2-8.7,27-1,27-1l3.9-5.1c0,0-24.5-13.6-39.6,5.2l38,40.6c-7.8,9-26.9,2.2-26.9,2.2l-3.7,5.3
		c0,0,25.1,12.5,39.3-7L26.4,19.8z"/>
	<path class="st1" d="M42.8,30.5l-4.1-3.4l-0.3-8.4l14.2,4.9l9.3-4.5c0,0,16.4,15,5.1,37.6l-3.9-4.5c0,0,7.1-20-3.2-26.8l-6.7,3.2
		c0,0-9.7-4.8-10.3-2L42.8,30.5z"/>
	<path class="st1" d="M22.6,31.4l-8.5-8.2c0,0-12.7,16.6,1.9,35.5l33.3,0.1l-5.2-6.2H19.2c0,0-7-11.9-2.6-20.9L22.6,31.4z"/>
</g>
<g>
	<path class="st2" d="M36.3,8.9c12.6-1.3,20.4,4.7,20.4,4.7l-4,5.3c0,0-6.6-4-14-3.5c-8,0.5-12.9,4.7-12.9,4.8
		c5.1,4.9,38.1,40.1,38.1,40.1s-5,7.6-17.1,10.6c-12.5,3.1-22.4-3.3-22.4-3.3l3.7-5.8c0,0,6.1,3.5,13.9,2.8
		c6.7-0.5,12.6-4.9,12.6-4.9L16.5,19.3C16.5,19.3,23.6,10.2,36.3,8.9z"/>
	<path class="st2" d="M71.4,36.4C72.9,49.5,66.2,58,66.2,58l-5.3-5.1c0,0,4.7-7.9,3.5-15.8c-1-6.8-4.5-11.5-4.5-11.5l-8.1,3.9
		l-9-3.4l0,7.5l-5.6-5.8V17.5c0,0,14.1,5.8,14.2,5.8c0.3,0,10.7-5.5,10.7-5.5S69.9,23.3,71.4,36.4z"/>
	<path class="st2" d="M24.1,32.4l-7.4,0c0,0-2.1,3.4-1.1,10.9c1,7.5,3.7,10.2,3.7,10.2s24.7-0.1,24.9-0.1c0,0.1,5.9,6.2,5.9,6.2
		l-34.6,0c0,0-5.7-6.3-6.8-16.9c-1.1-10.6,5.8-20.7,5.8-20.7L24.1,32.4z"/>
</g>
</svg>
