<?xml version="1.0" encoding="UTF-8"?>
<svg id="Calque_1" data-name="Calque 1" xmlns="http://www.w3.org/2000/svg" viewBox="0 0 425.2 141.73">
  <defs>
    <style>
      .cls-1, .cls-2 {
        fill: #125480;
      }

      .cls-1, .cls-2, .cls-3 {
        stroke-width: 0px;
      }

      .cls-1, .cls-3 {
        fill-rule: evenodd;
      }

      .cls-3 {
        fill: #9fcce0;
      }
    </style>
  </defs>
  <g>
    <polygon class="cls-2" points="135.43 32.4 135.43 66.83 135.64 66.83 148.97 32.4 165.31 32.4 150.36 67.94 167.25 109.41 150.36 109.41 135.64 70.19 135.43 70.19 135.43 109.41 119.42 109.41 119.42 32.4 135.43 32.4"/>
    <path class="cls-2" d="M200.14,96.54c10.64,0,11.4-19.5,11.4-25.64,0-6.84-.75-25.64-11.4-25.64s-11.39,18.8-11.39,25.64c0,6.13.75,25.64,11.39,25.64M228.63,70.91c0,28.9-14.19,39.73-28.49,39.73s-28.48-10.83-28.48-39.73,14.19-39.73,28.48-39.73,28.49,10.83,28.49,39.73"/>
    <polygon class="cls-2" points="269.37 32.4 269.37 46.7 253.13 46.7 253.13 63.45 267.44 63.45 267.44 77.75 253.13 77.75 253.13 95.11 269.58 95.11 269.58 109.41 237.12 109.41 237.12 32.4 269.37 32.4"/>
    <path class="cls-2" d="M311.72,71.42c0-9.8-3.23-25.33-16.45-25.33v49.64c12.91.61,16.45-14.71,16.45-24.31M279.26,109.41V32.41h12.15c2.79,0,36.34-3.88,36.34,39.12,0,21.95-8.92,37.89-34.19,37.89h-14.3Z"/>
    <rect class="cls-2" x="336.24" y="32.41" width="16.01" height="77"/>
    <path class="cls-2" d="M387.4,63.86l-1.83-11.64h-.21l-1.72,11.64-3.44,20.54h11.28l-4.08-20.54h0ZM394.5,32.41l19.46,77h-17.09l-3.01-12.97h-16.24l-2.9,12.97h-15.9l18.8-77h16.88Z"/>
  </g>
  <g>
    <path class="cls-1" d="M43.41,125.06c3.01-.58,5.73.44,6.08,2.28.35,1.83-1.81,3.78-4.82,4.36-3.01.58-5.73-.44-6.08-2.28-.35-1.83,1.81-3.78,4.82-4.36Z"/>
    <path class="cls-3" d="M61.46,119.12c3.91-1.61,7.78-1.23,8.64.86.86,2.09-1.62,5.09-5.53,6.7-3.91,1.61-7.78,1.23-8.64-.86-.86-2.09,1.62-5.09,5.53-6.7Z"/>
    <path class="cls-3" d="M81.44,112.02c2.93-2.08,6.06-2.72,6.99-1.42.93,1.3-.7,4.05-3.63,6.13-2.93,2.08-6.06,2.72-6.99,1.42-.93-1.3.7-4.05,3.63-6.13Z"/>
    <path class="cls-3" d="M94.23,93.83c1.34.33,1.88,2.88,1.19,5.69-.69,2.81-2.34,4.82-3.68,4.49-1.34-.33-1.88-2.88-1.19-5.69.69-2.81,2.34-4.82,3.68-4.49Z"/>
    <path class="cls-3" d="M101.54,77.71c.88.1,1.34,2.12,1.03,4.52-.31,2.4-1.28,4.27-2.17,4.17s-1.34-2.12-1.03-4.52c.31-2.4,1.28-4.27,2.17-4.17Z"/>
    <path class="cls-3" d="M47.26,104.17c3.06,0,5.55,2.48,5.55,5.55s-2.48,5.55-5.55,5.55-5.55-2.48-5.55-5.55,2.48-5.55,5.55-5.55Z"/>
    <path class="cls-1" d="M29.33,106.66c4.26,0,7.72,2.48,7.72,5.55s-3.46,5.55-7.72,5.55-7.72-2.48-7.72-5.55,3.46-5.55,7.72-5.55Z"/>
    <path class="cls-1" d="M100.97,62.76c1.2,0,2.17,1.94,2.17,4.34s-.97,4.34-2.17,4.34-2.17-1.94-2.17-4.34.97-4.34,2.17-4.34Z"/>
    <path class="cls-3" d="M93.59,43.12c2.19-.49,4.7,2.43,5.61,6.51.9,4.08-.14,7.78-2.34,8.27-2.19.49-4.7-2.43-5.61-6.51-.9-4.08.14-7.78,2.34-8.27Z"/>
    <path class="cls-1" d="M83.47,26.19c1.68-1.01,4.65.85,6.63,4.15,1.98,3.3,2.22,6.79.53,7.8-1.68,1.01-4.65-.85-6.63-4.15-1.98-3.3-2.22-6.79-.53-7.8Z"/>
    <path class="cls-3" d="M75.06,15.78c3.29,1.52,5.34,4.2,4.58,5.99-.76,1.79-4.04,2.02-7.33.5-3.29-1.52-5.34-4.2-4.58-5.99.76-1.79,4.04-2.02,7.33-.5Z"/>
    <path class="cls-1" d="M55.59,10.07c3.83.51,6.69,2.74,6.39,4.99-.3,2.24-3.65,3.65-7.48,3.14-3.83-.51-6.69-2.74-6.39-4.99.3-2.24,3.65-3.65,7.48-3.14Z"/>
    <path class="cls-1" d="M21.61,24.65c3.73,0,6.75,2.05,6.75,4.58s-3.02,4.58-6.75,4.58-6.75-2.05-6.75-4.58,3.02-4.58,6.75-4.58Z"/>
    <path class="cls-3" d="M43.8,24.17c3.46,0,6.27,1.94,6.27,4.34s-2.81,4.34-6.27,4.34-6.27-1.94-6.27-4.34,2.81-4.34,6.27-4.34Z"/>
    <path class="cls-1" d="M61.44,25.21c3.14.63,5.34,2.83,4.92,4.92-.42,2.09-3.3,3.28-6.43,2.65-3.14-.63-5.34-2.83-4.92-4.92.42-2.09,3.3-3.28,6.43-2.65Z"/>
    <path class="cls-3" d="M77.29,28.21c2.93,1.85,4.39,4.8,3.26,6.57-1.13,1.78-4.41,1.71-7.33-.14-2.93-1.85-4.39-4.8-3.26-6.57,1.12-1.78,4.41-1.71,7.33.14Z"/>
    <path class="cls-3" d="M45.01,41.05c3.6,0,6.51,2.92,6.51,6.51s-2.92,6.51-6.51,6.51-6.51-2.92-6.51-6.51,2.92-6.51,6.51-6.51Z"/>
    <path class="cls-3" d="M67.68,60.35c3.6,0,6.51,3.35,6.51,7.48s-2.92,7.48-6.51,7.48-6.51-3.35-6.51-7.48,2.92-7.48,6.51-7.48Z"/>
    <path class="cls-1" d="M83.6,60.35c2.53,0,4.58,2.92,4.58,6.51s-2.05,6.51-4.58,6.51-4.58-2.92-4.58-6.51,2.05-6.51,4.58-6.51Z"/>
    <path class="cls-3" d="M93.25,62.76c1.47,0,2.65,1.94,2.65,4.34s-1.19,4.34-2.65,4.34-2.65-1.94-2.65-4.34,1.19-4.34,2.65-4.34Z"/>
    <path class="cls-3" d="M47.42,84.95c4.13,0,7.48,2.81,7.48,6.27s-3.35,6.27-7.48,6.27-7.48-2.81-7.48-6.27,3.35-6.27,7.48-6.27Z"/>
    <path class="cls-3" d="M66.83,80.59c2.95,0,5.26,2.92,5.15,6.69-.11,3.97-2.83,7.34-6.06,7.34s-5.51-3.37-5.11-7.34c.38-3.77,3.07-6.69,6.02-6.69Z"/>
    <path class="cls-3" d="M82.69,77.83c3.52-.21,5.97,2.87,5.42,6.55-.51,3.36-3.36,5.87-6.33,5.87s-5.17-2.38-5.17-5.55c0-3.46,2.68-6.67,6.08-6.88Z"/>
    <path class="cls-1" d="M93.73,79.16c1.2,0,2.17,1.73,2.17,3.86s-.97,3.86-2.17,3.86-2.17-1.73-2.17-3.86.97-3.86,2.17-3.86Z"/>
    <path class="cls-3" d="M85.88,48.96c-.36-2.81-2.14-5.22-4.32-6.25-.34-.15-.72-.33-1.16-.4-.21-.05-.41-.08-.62-.1-.85-.08-1.65.07-2.37.41-.04.02-.7.42-.79.48-1,.71-2.22,1.4-3.39,1.33-1.28-.08-2.83-1.18-4.34-3.38-1.11-1.61-2.73-2.4-3.95-2.72-.05-.01-.09-.02-.14-.03-.18-.04-.35-.07-.5-.1-.03,0-.06,0-.09-.01-.1-.01-.51-.04-.63-.04-3.6,0-6.27,3.35-6.27,7.48s2.92,7.48,6.51,7.48c.49,0,.95-.06,1.4-.17,1.35-.24,2.27-1.15,3.15-1.83,3.11-2.42,6.68.54,8.24,2.48,1.56,1.94,3.88,2.08,3.88,2.08,0,0,0,0,0,0,.05,0,.09.02.14.02,3.4.27,5.74-2.88,5.25-6.73Z"/>
    <path class="cls-1" d="M47.42,61.8c-.05,0-.21,0-.24,0-1.76,0-4.65.81-6.27,2.89s-3.54,2.75-6.75,2.89c-3.22.15-4.61-1.3-6.27-2.89-.74-.71-1.6-1.37-2.51-1.88-.08-.05-.17-.09-.25-.14-.12-.06-1.45-.84-3.51-.88-4.26-.07-7.72,3.56-7.72,7.96s3.46,8.01,7.72,7.96c2.77-.03,4.17-1.17,5.49-2.36,1.86-1.82,5.08-3.42,7.54-3.43,2.55-.01,6.49,1.68,8.36,3.3,1.2,1.04,2.62,1.38,3.64,1.48.26.03.52.05.79.05,3.86,0,7-3.35,7-7.48s-3.13-7.48-7-7.48Z"/>
    <path class="cls-1" d="M83.76,92.58c-1.99,0-4.14,1.91-5.49,4.62-.22.39-.45.8-.71,1.25-1.97,3.46-6.38,2.34-7.72,1.45-.8-.53-1.93-1.25-3.76-1.25-3.56,0-6.9,3.12-7.47,7.06-.58,4.05,1.7,7.69,5.44,7.69,2.12,0,4.3-1.09,5.68-2.92.83-1.1,1.81-3.41,2.2-4.02,1.54-2.43,4.12-1.14,5.63.18,1.67,1.46,4.1.6,4.1.6,2.29-.76,4.27-3.72,5.09-7.22.97-4.12-.37-7.46-3-7.46Z"/>
  </g>
</svg>