<svg width="576" height="576" viewBox="0 0 576 576" fill="none" xmlns="http://www.w3.org/2000/svg">
<path d="M571.679 225.072C569.807 222.912 566.927 221.616 564.047 221.616H429.695C429.407 221.616 429.262 221.616 429.119 221.76C428.974 221.76 428.831 221.76 428.687 221.76C428.399 221.76 427.966 221.76 427.678 221.76C373.966 221.76 326.014 263.52 318.094 317.088L268.126 360.432L310.03 86.8321V86.5441L313.63 62.9281C314.063 60.0481 313.198 57.0241 311.326 54.8651C309.454 52.4171 306.718 51.1211 303.693 51.1211H265.679C260.495 51.1211 256.031 55.0091 255.311 60.0491L248.687 103.537C238.463 168.625 177.119 221.617 112.031 221.617H110.591L117.071 179.425C119.087 165.889 127.295 158.833 141.119 158.545H159.983C165.167 158.545 169.631 154.657 170.351 149.617L176.111 111.601C176.543 108.721 175.679 105.697 173.807 103.537C171.935 101.377 169.055 100.081 166.175 100.081H147.167C116.207 100.081 67.103 120.529 58.463 176.977L51.551 221.761H30.959C27.215 221.761 23.615 223.777 21.743 227.089L3.31105 259.489C1.15105 263.233 1.58305 267.985 4.31905 271.153L38.015 310.898L17.423 445.104C11.519 483.985 27.647 513.649 59.759 522.577C65.951 524.305 72.575 525.169 79.343 525.169C108.575 525.169 138.239 509.329 156.959 483.841C172.079 463.105 200.159 406.513 134.063 328.465L100.223 288.722L101.519 280.369H105.695C148.607 280.369 191.951 264.817 228.383 236.305L207.647 371.953C205.343 386.641 209.087 400.465 218.015 410.833C226.943 421.201 239.759 426.961 254.303 426.961C268.415 426.961 282.527 421.489 293.903 411.697L329.758 380.593C333.214 386.497 337.103 391.969 341.567 396.721C359.422 416.305 384.479 426.961 411.983 426.961C468.287 426.961 517.823 381.169 522.43 325.009C523.726 309.601 521.422 294.193 515.951 280.369H557.855C563.039 280.369 567.502 276.481 568.222 271.441L573.983 233.425C574.415 230.256 573.551 227.376 571.679 225.072ZM415.439 368.208C403.775 368.208 393.262 363.744 385.775 355.536C378.287 347.328 374.686 336.384 375.55 324.863C377.567 300.24 399.166 280.224 423.79 280.224C435.454 280.224 445.966 284.688 453.454 292.896C460.942 301.103 464.542 312.047 463.678 323.568C461.663 348.191 440.063 368.208 415.439 368.208ZM110.303 452.88C101.951 464.401 87.983 467.857 81.215 465.984C79.343 465.408 73.439 463.824 75.887 447.696L87.839 369.648C115.775 403.056 124.127 434.016 110.303 452.88Z" fill="#63B5D8"/>
</svg>
